<svg version="1.1" id="Layer_1" xmlns="http://www.w3.org/2000/svg" xmlns:xlink="http://www.w3.org/1999/xlink" x="0px" y="0px"
	 width="100%" viewBox="0 0 500 500" enable-background="new 0 0 500 500" xml:space="preserve">
<path fill="#212631" opacity="1.000000" stroke="none" 
	d="
M237.000000,501.000000 
	C158.000015,501.000000 79.500038,501.000000 1.000042,501.000000 
	C1.000028,334.333405 1.000028,167.666779 1.000014,1.000132 
	C167.666565,1.000088 334.333130,1.000088 500.999756,1.000044 
	C500.999847,167.666519 500.999847,334.333038 500.999939,500.999786 
	C413.166656,501.000000 325.333344,501.000000 237.000000,501.000000 
M152.760895,172.961304 
	C152.760895,190.877853 152.760895,208.794403 152.760895,226.742401 
	C159.876526,226.742401 166.463135,226.742401 173.041840,226.742401 
	C173.041840,206.889923 173.041840,187.299133 173.041840,166.769623 
	C166.197571,167.279083 159.630814,167.767868 152.358505,168.767944 
	C140.669418,163.401382 130.220535,164.650406 121.260155,175.497803 
	C121.077812,172.220230 120.946030,169.851471 120.816238,167.518448 
	C113.878487,167.518448 107.318207,167.518448 100.700378,167.518448 
	C100.700378,187.496124 100.700378,207.160721 100.700378,226.734390 
	C107.655914,226.734390 114.236824,226.734390 121.053474,226.734390 
	C121.053474,216.670883 120.949585,206.881348 121.083290,197.095062 
	C121.211884,187.683319 126.461945,182.937836 135.740250,183.896957 
	C138.586349,184.191177 141.347733,185.304993 144.335068,186.092850 
	C146.386780,181.946869 148.372314,177.762314 150.553207,173.682159 
	C150.958588,172.923737 152.150009,172.585449 152.760895,172.961304 
M247.482071,136.564651 
	C247.482071,133.450485 247.482071,130.336319 247.482071,127.275589 
	C240.306992,127.275589 233.710510,127.275589 226.566406,127.275589 
	C226.566406,142.348801 226.566406,157.160278 226.566406,172.382523 
	C212.982300,161.818542 195.186005,164.804352 186.426804,174.270020 
	C175.823853,185.728165 174.569717,204.579803 183.913803,217.106522 
	C189.083923,224.037628 195.988510,227.912125 204.570511,228.734024 
	C213.066895,229.547714 220.392181,226.658340 226.895645,220.682007 
	C227.016098,223.185806 227.101181,224.954773 227.185715,226.712006 
	C234.035004,226.712006 240.601227,226.712006 247.482010,226.712006 
	C247.482010,196.796524 247.482010,167.170975 247.482071,136.564651 
M216.026611,299.627380 
	C216.369873,291.810211 214.256241,284.897278 207.306870,280.672791 
	C195.621597,273.569397 183.979568,273.324310 172.509857,283.420929 
	C172.509857,267.287018 172.509857,252.352890 172.509857,237.220581 
	C165.564163,237.220581 158.990753,237.220581 152.194946,237.220581 
	C152.194946,270.479828 152.194946,303.518005 152.194946,336.781860 
	C158.976242,336.781860 165.552109,336.781860 172.673660,336.781860 
	C172.673660,334.998047 172.673065,333.375061 172.673752,331.752106 
	C172.677719,322.428467 172.556396,313.102478 172.727829,303.781921 
	C172.853897,296.927673 178.277588,291.782257 184.865616,291.843658 
	C190.975937,291.900604 194.988846,296.311554 195.282181,303.420685 
	C195.398773,306.246460 195.323929,309.080444 195.325104,311.910675 
	C195.328522,320.182983 195.326324,328.455292 195.326324,336.733612 
	C202.538452,336.733612 209.119843,336.733612 216.027298,336.733612 
	C216.027298,324.506500 216.027298,312.550568 216.026611,299.627380 
M219.478851,299.310547 
	C219.306274,303.451569 218.710007,307.626038 219.034103,311.727814 
	C220.472763,329.935516 237.605637,342.400574 255.211334,337.815002 
	C259.665344,336.654938 263.673401,333.782654 267.935120,331.673065 
	C268.002411,333.181488 268.080353,334.928314 268.158630,336.682678 
	C275.041321,336.682678 281.594116,336.682678 288.169495,336.682678 
	C288.169495,316.785034 288.169495,297.210938 288.169495,277.540314 
	C281.299438,277.540314 274.747467,277.540314 268.213989,277.540314 
	C267.961517,279.220459 267.755829,280.589172 267.523895,282.132324 
	C247.177567,267.937256 224.365982,278.650024 219.478851,299.310547 
M305.528961,223.078766 
	C308.714508,220.049316 311.900085,217.019882 315.506256,213.590424 
	C312.907501,212.203644 311.122406,211.349106 309.435059,210.332321 
	C304.251831,207.208878 300.147675,205.680511 293.823883,210.200317 
	C285.421387,216.205841 271.406403,210.258118 273.093140,199.951523 
	C287.231171,199.951523 301.454346,199.951523 315.937042,199.951523 
	C316.239136,188.123749 313.706177,178.051544 303.720642,171.177658 
	C296.031372,165.884460 287.335999,164.659851 278.415100,166.116959 
	C265.945923,168.153641 257.093994,175.304535 252.892120,187.262848 
	C248.712616,199.157486 251.393875,209.923767 260.237762,218.925995 
	C271.517792,230.407974 289.430695,232.149170 305.528961,223.078766 
M386.894257,320.832336 
	C375.277893,324.766022 366.306671,320.257538 366.190033,310.026123 
	C373.315094,310.026123 380.441589,310.026093 387.568085,310.026093 
	C394.665131,310.026093 401.762207,310.026123 408.796509,310.026123 
	C410.424316,289.085022 398.005371,275.719635 377.472717,275.651459 
	C361.637787,275.598877 347.487274,286.755493 344.982452,301.267609 
	C342.243561,317.135895 350.964081,331.826996 366.195343,337.004211 
	C382.057159,342.395721 400.647430,336.240997 407.792969,322.995850 
	C402.946686,320.566193 398.111176,318.141968 393.513489,315.836945 
	C391.237457,317.588440 389.400177,319.002289 386.894257,320.832336 
M133.298264,276.087769 
	C127.181381,276.409027 120.899681,275.964935 114.987785,277.238037 
	C106.927063,278.973877 101.343666,284.108459 100.381836,292.894989 
	C99.475250,301.176727 103.904785,306.477814 110.735947,310.074158 
	C114.546570,312.080322 118.747955,313.360901 122.492119,315.467987 
	C123.897156,316.258759 125.467606,318.652618 125.208382,319.970551 
	C124.948647,321.291138 122.582512,322.908752 120.991768,323.088654 
	C118.633667,323.355316 115.991119,322.861145 113.749008,321.980011 
	C110.544640,320.720703 107.592682,318.819092 104.277428,317.055908 
	C101.619804,321.522217 98.938690,326.028015 96.320915,330.427368 
	C106.647278,340.463501 130.103119,341.760620 140.962234,333.230316 
	C149.895660,326.212738 149.820206,310.918182 140.353424,304.718781 
	C135.854584,301.772675 130.326843,300.443329 125.485504,297.953247 
	C123.402168,296.881714 121.878220,294.722595 120.100121,293.057556 
	C122.481178,292.065125 124.921539,290.137817 127.230339,290.284302 
	C131.415482,290.549774 135.522247,292.050781 140.007858,293.118408 
	C142.061081,288.986267 144.166229,284.749634 146.610153,279.831207 
	C142.039459,278.499268 138.091583,277.348816 133.298264,276.087769 
M340.350494,276.082642 
	C331.003601,274.302490 323.633209,277.988312 316.915039,285.841614 
	C316.915039,282.175690 316.915039,279.917084 316.915039,277.502686 
	C310.001953,277.502686 303.436493,277.502686 296.742920,277.502686 
	C296.742920,297.461792 296.742920,317.129730 296.742920,336.665924 
	C303.725677,336.665924 310.299835,336.665924 317.046448,336.665924 
	C317.046448,326.510040 316.922180,316.696991 317.082581,306.888641 
	C317.232666,297.710205 322.427124,293.011078 331.466003,293.873871 
	C334.340302,294.148224 337.135406,295.252747 340.344482,296.074066 
	C343.020050,290.633667 345.753693,285.075287 348.736206,279.010803 
	C345.763977,277.919434 343.460236,277.073517 340.350494,276.082642 
M174.449020,147.740967 
	C176.412003,140.758957 175.161865,136.259552 170.281921,132.742981 
	C166.363525,129.919327 160.748642,129.794724 156.724167,132.442139 
	C152.566650,135.177078 150.206528,140.259415 151.226028,144.882553 
	C152.359146,150.021072 155.564774,153.550781 160.702545,154.647614 
	C166.534256,155.892593 171.045944,153.535065 174.449020,147.740967 
z"/>
<path fill="#FDFDFD" opacity="1.000000" stroke="none" 
	d="
M247.482040,137.055054 
	C247.482010,167.170975 247.482010,196.796524 247.482010,226.712006 
	C240.601227,226.712006 234.035004,226.712006 227.185715,226.712006 
	C227.101181,224.954773 227.016098,223.185806 226.895645,220.682007 
	C220.392181,226.658340 213.066895,229.547714 204.570511,228.734024 
	C195.988510,227.912125 189.083923,224.037628 183.913803,217.106522 
	C174.569717,204.579803 175.823853,185.728165 186.426804,174.270020 
	C195.186005,164.804352 212.982300,161.818542 226.566406,172.382523 
	C226.566406,157.160278 226.566406,142.348801 226.566406,127.275589 
	C233.710510,127.275589 240.306992,127.275589 247.482071,127.275589 
	C247.482071,130.336319 247.482071,133.450485 247.482040,137.055054 
M200.079102,193.220856 
	C199.976807,195.037903 199.700577,196.864792 199.802612,198.670288 
	C200.221451,206.082169 205.630753,211.015381 213.258499,211.074387 
	C220.780762,211.132584 226.481125,206.130997 227.083801,198.943863 
	C227.720459,191.351151 223.938812,185.580963 217.147034,183.782028 
	C209.845306,181.848022 203.973846,184.862183 200.079102,193.220856 
z"/>
<path fill="#F8C807" opacity="1.000000" stroke="none" 
	d="
M216.026947,300.111023 
	C216.027298,312.550568 216.027298,324.506500 216.027298,336.733612 
	C209.119843,336.733612 202.538452,336.733612 195.326324,336.733612 
	C195.326324,328.455292 195.328522,320.182983 195.325104,311.910675 
	C195.323929,309.080444 195.398773,306.246460 195.282181,303.420685 
	C194.988846,296.311554 190.975937,291.900604 184.865616,291.843658 
	C178.277588,291.782257 172.853897,296.927673 172.727829,303.781921 
	C172.556396,313.102478 172.677719,322.428467 172.673752,331.752106 
	C172.673065,333.375061 172.673660,334.998047 172.673660,336.781860 
	C165.552109,336.781860 158.976242,336.781860 152.194946,336.781860 
	C152.194946,303.518005 152.194946,270.479828 152.194946,237.220581 
	C158.990753,237.220581 165.564163,237.220581 172.509857,237.220581 
	C172.509857,252.352890 172.509857,267.287018 172.509857,283.420929 
	C183.979568,273.324310 195.621597,273.569397 207.306870,280.672791 
	C214.256241,284.897278 216.369873,291.810211 216.026947,300.111023 
z"/>
<path fill="#F9C907" opacity="1.000000" stroke="none" 
	d="
M219.605225,298.902405 
	C224.365982,278.650024 247.177567,267.937256 267.523895,282.132324 
	C267.755829,280.589172 267.961517,279.220459 268.213989,277.540314 
	C274.747467,277.540314 281.299438,277.540314 288.169495,277.540314 
	C288.169495,297.210938 288.169495,316.785034 288.169495,336.682678 
	C281.594116,336.682678 275.041321,336.682678 268.158630,336.682678 
	C268.080353,334.928314 268.002411,333.181488 267.935120,331.673065 
	C263.673401,333.782654 259.665344,336.654938 255.211334,337.815002 
	C237.605637,342.400574 220.472763,329.935516 219.034103,311.727814 
	C218.710007,307.626038 219.306274,303.451569 219.605225,298.902405 
M244.333160,317.134094 
	C245.535629,318.009399 246.624878,319.157074 247.960419,319.712280 
	C253.388397,321.968781 258.683594,321.804688 263.429565,317.990967 
	C267.759308,314.511719 269.420013,308.153564 267.511047,302.565277 
	C265.598999,296.967987 261.504395,293.826263 255.716873,293.300110 
	C250.178116,292.796570 245.404282,294.799622 242.662048,299.779816 
	C239.534637,305.459595 239.733032,311.223022 244.333160,317.134094 
z"/>
<path fill="#FBFBFB" opacity="1.000000" stroke="none" 
	d="
M305.222565,223.275909 
	C289.430695,232.149170 271.517792,230.407974 260.237762,218.925995 
	C251.393875,209.923767 248.712616,199.157486 252.892120,187.262848 
	C257.093994,175.304535 265.945923,168.153641 278.415100,166.116959 
	C287.335999,164.659851 296.031372,165.884460 303.720642,171.177658 
	C313.706177,178.051544 316.239136,188.123749 315.937042,199.951523 
	C301.454346,199.951523 287.231171,199.951523 273.093140,199.951523 
	C271.406403,210.258118 285.421387,216.205841 293.823883,210.200317 
	C300.147675,205.680511 304.251831,207.208878 309.435059,210.332321 
	C311.122406,211.349106 312.907501,212.203644 315.506256,213.590424 
	C311.900085,217.019882 308.714508,220.049316 305.222565,223.275909 
M293.910461,183.606094 
	C290.400787,179.054718 285.772186,178.183823 280.516602,179.652390 
	C276.273865,180.837921 273.864532,183.612045 273.337463,188.308304 
	C280.844330,188.308304 288.027313,188.308304 295.664764,188.308304 
	C295.091858,186.672318 294.668915,185.464630 293.910461,183.606094 
z"/>
<path fill="#F9C807" opacity="1.000000" stroke="none" 
	d="
M387.228577,320.624237 
	C389.400177,319.002289 391.237457,317.588440 393.513489,315.836945 
	C398.111176,318.141968 402.946686,320.566193 407.792969,322.995850 
	C400.647430,336.240997 382.057159,342.395721 366.195343,337.004211 
	C350.964081,331.826996 342.243561,317.135895 344.982452,301.267609 
	C347.487274,286.755493 361.637787,275.598877 377.472717,275.651459 
	C398.005371,275.719635 410.424316,289.085022 408.796509,310.026123 
	C401.762207,310.026123 394.665131,310.026093 387.568085,310.026093 
	C380.441589,310.026093 373.315094,310.026123 366.190033,310.026123 
	C366.306671,320.257538 375.277893,324.766022 387.228577,320.624237 
M388.111908,295.515564 
	C384.931946,290.045166 380.236572,287.846222 374.484711,289.385315 
	C370.015503,290.581238 366.847290,293.060120 366.832642,298.675262 
	C372.645264,298.675262 378.240143,298.675659 383.835022,298.674896 
	C384.827728,298.674774 385.984467,298.984070 386.765778,298.576294 
	C387.507385,298.189240 387.856018,297.049194 388.111908,295.515564 
z"/>
<path fill="#F8C807" opacity="1.000000" stroke="none" 
	d="
M133.720978,276.143066 
	C138.091583,277.348816 142.039459,278.499268 146.610153,279.831207 
	C144.166229,284.749634 142.061081,288.986267 140.007858,293.118408 
	C135.522247,292.050781 131.415482,290.549774 127.230339,290.284302 
	C124.921539,290.137817 122.481178,292.065125 120.100128,293.057556 
	C121.878220,294.722595 123.402168,296.881714 125.485504,297.953247 
	C130.326843,300.443329 135.854584,301.772675 140.353424,304.718781 
	C149.820206,310.918182 149.895660,326.212738 140.962234,333.230316 
	C130.103119,341.760620 106.647278,340.463501 96.320915,330.427368 
	C98.938690,326.028015 101.619804,321.522217 104.277428,317.055908 
	C107.592682,318.819092 110.544640,320.720703 113.749008,321.980011 
	C115.991119,322.861145 118.633667,323.355316 120.991768,323.088654 
	C122.582512,322.908752 124.948647,321.291138 125.208382,319.970551 
	C125.467606,318.652618 123.897156,316.258759 122.492119,315.467987 
	C118.747955,313.360901 114.546570,312.080322 110.735947,310.074158 
	C103.904785,306.477814 99.475250,301.176727 100.381836,292.894989 
	C101.343666,284.108459 106.927063,278.973877 114.987785,277.238037 
	C120.899681,275.964935 127.181381,276.409027 133.720978,276.143066 
z"/>
<path fill="#F9F9F9" opacity="1.000000" stroke="none" 
	d="
M152.978668,172.053284 
	C152.150009,172.585449 150.958588,172.923737 150.553207,173.682159 
	C148.372314,177.762314 146.386780,181.946869 144.335068,186.092850 
	C141.347733,185.304993 138.586349,184.191177 135.740250,183.896957 
	C126.461945,182.937836 121.211884,187.683319 121.083290,197.095062 
	C120.949585,206.881348 121.053474,216.670883 121.053474,226.734390 
	C114.236824,226.734390 107.655914,226.734390 100.700378,226.734390 
	C100.700378,207.160721 100.700378,187.496124 100.700378,167.518448 
	C107.318207,167.518448 113.878487,167.518448 120.816238,167.518448 
	C120.946030,169.851471 121.077812,172.220230 121.260155,175.497803 
	C130.220535,164.650406 140.669418,163.401382 152.705795,168.892029 
	C153.028275,170.028488 153.003464,171.040894 152.978668,172.053284 
z"/>
<path fill="#F6C607" opacity="1.000000" stroke="none" 
	d="
M340.753479,276.155121 
	C343.460236,277.073517 345.763977,277.919434 348.736206,279.010803 
	C345.753693,285.075287 343.020050,290.633667 340.344482,296.074066 
	C337.135406,295.252747 334.340302,294.148224 331.466003,293.873871 
	C322.427124,293.011078 317.232666,297.710205 317.082581,306.888641 
	C316.922180,316.696991 317.046448,326.510040 317.046448,336.665924 
	C310.299835,336.665924 303.725677,336.665924 296.742920,336.665924 
	C296.742920,317.129730 296.742920,297.461792 296.742920,277.502686 
	C303.436493,277.502686 310.001953,277.502686 316.915039,277.502686 
	C316.915039,279.917084 316.915039,282.175690 316.915039,285.841614 
	C323.633209,277.988312 331.003601,274.302490 340.753479,276.155121 
z"/>
<path fill="#FDFDFD" opacity="1.000000" stroke="none" 
	d="
M152.869781,172.507294 
	C153.003464,171.040894 153.028275,170.028488 153.058578,168.636383 
	C159.630814,167.767868 166.197571,167.279083 173.041840,166.769623 
	C173.041840,187.299133 173.041840,206.889923 173.041840,226.742401 
	C166.463135,226.742401 159.876526,226.742401 152.760895,226.742401 
	C152.760895,208.794403 152.760895,190.877853 152.869781,172.507294 
z"/>
<path fill="#F9F9F9" opacity="1.000000" stroke="none" 
	d="
M174.266052,148.070999 
	C171.045944,153.535065 166.534256,155.892593 160.702545,154.647614 
	C155.564774,153.550781 152.359146,150.021072 151.226028,144.882553 
	C150.206528,140.259415 152.566650,135.177078 156.724167,132.442139 
	C160.748642,129.794724 166.363525,129.919327 170.281921,132.742981 
	C175.161865,136.259552 176.412003,140.758957 174.266052,148.070999 
z"/>
<path fill="#040404" opacity="1.000000" stroke="none" 
	d="
M200.194244,192.823334 
	C203.973846,184.862183 209.845306,181.848022 217.147034,183.782028 
	C223.938812,185.580963 227.720459,191.351151 227.083801,198.943863 
	C226.481125,206.130997 220.780762,211.132584 213.258499,211.074387 
	C205.630753,211.015381 200.221451,206.082169 199.802612,198.670288 
	C199.700577,196.864792 199.976807,195.037903 200.194244,192.823334 
z"/>
<path fill="#040404" opacity="1.000000" stroke="none" 
	d="
M244.088135,316.842834 
	C239.733032,311.223022 239.534637,305.459595 242.662048,299.779816 
	C245.404282,294.799622 250.178116,292.796570 255.716873,293.300110 
	C261.504395,293.826263 265.598999,296.967987 267.511047,302.565277 
	C269.420013,308.153564 267.759308,314.511719 263.429565,317.990967 
	C258.683594,321.804688 253.388397,321.968781 247.960419,319.712280 
	C246.624878,319.157074 245.535629,318.009399 244.088135,316.842834 
z"/>
<path fill="#040404" opacity="1.000000" stroke="none" 
	d="
M294.078247,183.931519 
	C294.668915,185.464630 295.091858,186.672318 295.664764,188.308304 
	C288.027313,188.308304 280.844330,188.308304 273.337463,188.308304 
	C273.864532,183.612045 276.273865,180.837921 280.516602,179.652390 
	C285.772186,178.183823 290.400787,179.054718 294.078247,183.931519 
z"/>
<path fill="#040404" opacity="1.000000" stroke="none" 
	d="
M388.244690,295.877930 
	C387.856018,297.049194 387.507385,298.189240 386.765778,298.576294 
	C385.984467,298.984070 384.827728,298.674774 383.835022,298.674896 
	C378.240143,298.675659 372.645264,298.675262 366.832642,298.675262 
	C366.847290,293.060120 370.015503,290.581238 374.484711,289.385315 
	C380.236572,287.846222 384.931946,290.045166 388.244690,295.877930 
z"/>
</svg>